# xmcd
#
# Track frame offsets:
#	150
#	12105
#	27836
#	41855
#	58591
#	75983
#	92922
#	117087
#	133525
#	151000
#	162448
#	179760
#	194979
#	211596
#	225058
#	241919
#	258256
#	275101
#	290014
#	310962
#
# Disc length: 4331 seconds
#
# Revision: 0
# Processed by: cddbd v1.5.2PL0 Copyright (c) Steve Scherf et al.
# Submitted via: EasyCDDAExtractor 2010.6.0.0
#
DISCID=1010e914
DTITLE=Various Artist - The Ultimate Super 20, Volume 1
DYEAR=1996
DGENRE=
TTITLE0=Bucks Fizz - Making Your Mind Up
TTITLE1=Vicky Leandros and Tony Christie - We're Gona Stay Together
TTITLE2=Jan Johansen - Another Night
TTITLE3=Boney M. - Rasputin
TTITLE4=Engelbert Humperdinck - Radio Dancing
TTITLE5=Nicole - Song for the World
TTITLE6=C.C.Catch - Back Seat of Your Cadillac
TTITLE7=Baccara - Sorry, I'm a Lady
TTITLE8=Amanda Lear - Follow Me
TTITLE9=Françoise Hardy - All Over the World
TTITLE10=David Hasselhoff - Highway to Your Heart
TTITLE11=Tony Christie - (Is This the Way to) Amarillo
TTITLE12=Parrish and Toppano - The Royal Falcon
TTITLE13=Middle Of The Road - Chirpy Chirpy Cheep Cheep
TTITLE14=Chris Norman - Some Hearts Are Diamonds
TTITLE15=Audrey Landers - Manuel Goodbye
TTITLE16=Saragossa Band - Pas Pleurer (Please No More Crying)
TTITLE17=Roger Whittaker - I Don't Believe in If Anymore
TTITLE18=Taco - Puttin' on the Ritz
TTITLE19=The Sweet - Poppa Joe
EXTD=
EXTT0=
EXTT1=
EXTT2=
EXTT3=
EXTT4=
EXTT5=
EXTT6=
EXTT7=
EXTT8=
EXTT9=
EXTT10=
EXTT11=
EXTT12=
EXTT13=
EXTT14=
EXTT15=
EXTT16=
EXTT17=
EXTT18=
EXTT19=
PLAYORDER=
